<?xml version="1.0" encoding="UTF-8" standalone="no"?>
<svg
   xmlns:dc="http://purl.org/dc/elements/1.1/"
   xmlns:cc="http://creativecommons.org/ns#"
   xmlns:rdf="http://www.w3.org/1999/02/22-rdf-syntax-ns#"
   xmlns:svg="http://www.w3.org/2000/svg"
   xmlns="http://www.w3.org/2000/svg"
   xmlns:sodipodi="http://sodipodi.sourceforge.net/DTD/sodipodi-0.dtd"
   xmlns:inkscape="http://www.inkscape.org/namespaces/inkscape"
   width="210mm"
   height="297mm"
   viewBox="0 0 210 297"
   version="1.1"
   id="svg8"
   inkscape:version="1.0.2-2 (e86c870879, 2021-01-15)">
  <defs
     id="defs2">
    <inkscape:path-effect
       effect="bspline"
       id="path-effect2314"
       is_visible="true"
       lpeversion="1"
       weight="33.333333"
       steps="2"
       helper_size="0"
       apply_no_weight="true"
       apply_with_weight="true"
       only_selected="false" />
    <inkscape:path-effect
       effect="bspline"
       id="path-effect2310"
       is_visible="true"
       lpeversion="1"
       weight="33.333333"
       steps="2"
       helper_size="0"
       apply_no_weight="true"
       apply_with_weight="true"
       only_selected="false" />
    <inkscape:path-effect
       effect="bspline"
       id="path-effect2292"
       is_visible="true"
       lpeversion="1"
       weight="33.333333"
       steps="2"
       helper_size="0"
       apply_no_weight="true"
       apply_with_weight="true"
       only_selected="false" />
    <inkscape:path-effect
       effect="bspline"
       id="path-effect2271"
       is_visible="true"
       lpeversion="1"
       weight="33.333333"
       steps="2"
       helper_size="0"
       apply_no_weight="true"
       apply_with_weight="true"
       only_selected="false" />
    <inkscape:path-effect
       effect="bspline"
       id="path-effect2248"
       is_visible="true"
       lpeversion="1"
       weight="33.333333"
       steps="2"
       helper_size="0"
       apply_no_weight="true"
       apply_with_weight="true"
       only_selected="false" />
    <inkscape:path-effect
       effect="bspline"
       id="path-effect2222"
       is_visible="true"
       lpeversion="1"
       weight="33.333333"
       steps="2"
       helper_size="0"
       apply_no_weight="true"
       apply_with_weight="true"
       only_selected="false" />
    <inkscape:path-effect
       effect="bspline"
       id="path-effect2218"
       is_visible="true"
       lpeversion="1"
       weight="33.333333"
       steps="2"
       helper_size="0"
       apply_no_weight="true"
       apply_with_weight="true"
       only_selected="false" />
    <inkscape:path-effect
       effect="bspline"
       id="path-effect2214"
       is_visible="true"
       lpeversion="1"
       weight="33.333333"
       steps="2"
       helper_size="0"
       apply_no_weight="true"
       apply_with_weight="true"
       only_selected="false" />
    <inkscape:path-effect
       effect="bspline"
       id="path-effect2208"
       is_visible="true"
       lpeversion="1"
       weight="33.333333"
       steps="2"
       helper_size="0"
       apply_no_weight="true"
       apply_with_weight="true"
       only_selected="false" />
  </defs>
  <sodipodi:namedview
     id="base"
     pagecolor="#ffffff"
     bordercolor="#666666"
     borderopacity="1.0"
     inkscape:pageopacity="0.0"
     inkscape:pageshadow="2"
     inkscape:zoom="0.69618164"
     inkscape:cx="513.69694"
     inkscape:cy="726.45649"
     inkscape:document-units="mm"
     inkscape:current-layer="layer1"
     inkscape:document-rotation="0"
     showgrid="false"
     inkscape:window-width="1920"
     inkscape:window-height="1001"
     inkscape:window-x="-9"
     inkscape:window-y="-9"
     inkscape:window-maximized="1" />
  <metadata
     id="metadata5">
    <rdf:RDF>
      <cc:Work
         rdf:about="">
        <dc:format>image/svg+xml</dc:format>
        <dc:type
           rdf:resource="http://purl.org/dc/dcmitype/StillImage" />
        <dc:title></dc:title>
      </cc:Work>
    </rdf:RDF>
  </metadata>
  <g
     inkscape:label="Layer 1"
     inkscape:groupmode="layer"
     id="layer1"
     style="display:inline">
    <path
       style="fill:none;stroke:#000000;stroke-width:0.264583px;stroke-linecap:butt;stroke-linejoin:miter;stroke-opacity:1"
       d="M 2.7761329,48.47555 Z"
       id="path946" />
    <path
       style="fill:#000000;stroke:#000000;stroke-width:1.07852;stroke-miterlimit:4;stroke-dasharray:none;stroke-opacity:1"
       d=""
       id="path1098"
       transform="scale(0.26458333)" />
    <ellipse
       style="fill:#80d8e2;fill-opacity:1;stroke:#000000;stroke-width:1;stroke-miterlimit:4;stroke-dasharray:none;stroke-opacity:1"
       id="path2168"
       cx="94.998817"
       cy="119.15896"
       rx="60.617859"
       ry="57.38744" />
    <ellipse
       style="fill:#000000;fill-opacity:1;stroke:#000000;stroke-width:0;stroke-miterlimit:4;stroke-dasharray:none;stroke-opacity:1"
       id="path2172"
       cx="81.829926"
       cy="108.83785"
       rx="8.4651661"
       ry="8.0620623" />
    <ellipse
       style="display:inline;fill:#000000;fill-opacity:1;stroke:#000000;stroke-width:0;stroke-miterlimit:4;stroke-dasharray:none;stroke-opacity:1"
       id="path2172-2"
       cx="110.31588"
       cy="109.24094"
       rx="8.0620623"
       ry="7.7933269" />
    <path
       style="fill:none;stroke:#000000;stroke-width:0.529166px;stroke-linecap:butt;stroke-linejoin:miter;stroke-opacity:1"
       d="m 92.09911,119.80658 c 3.571341,-1.96935 5.433724,-1.3561 8.97555,1.02536 3.54182,2.38146 8.76286,6.53069 5.19163,8.49989 -3.57124,1.96921 -15.934231,1.75869 -19.476185,-0.62262 -3.541955,-2.38131 1.737663,-6.93329 5.309005,-8.90263 z"
       id="path2206"
       inkscape:path-effect="#path-effect2208"
       inkscape:original-d="m 93.807537,117.22381 c 1.86278,0.61383 3.725162,1.22708 5.58714,1.83974 5.221683,4.15 10.442703,8.29926 15.663483,12.448 -12.36312,-0.20993 -24.726111,-0.42045 -37.089765,-0.63155 5.28022,-4.55156 10.55983,-9.10355 15.839142,-13.65619 z" />
    <path
       style="fill:#4398a3;fill-opacity:1;stroke:#000000;stroke-width:3.83884;stroke-miterlimit:4;stroke-dasharray:none;stroke-opacity:1"
       d="m 344.79062,490.37082 c -9.72548,-1.81528 -16.72931,-5.06786 -18.71411,-8.69087 -1.24829,-2.27861 -1.25408,-3.14013 -0.0409,-6.09416 2.09751,-5.10736 9.6682,-12.78052 18.01278,-18.25654 9.14661,-6.00235 13.19464,-7.37723 20.04741,-6.80895 6.21359,0.51528 14.95064,5.31273 26.40102,14.4966 16.47792,13.21626 17.91856,20.41691 4.92059,24.59407 -7.1784,2.30693 -39.72134,2.79536 -50.62678,0.75985 z"
       id="path2210"
       transform="scale(0.26458333)" />
    <path
       style="fill:none;stroke:#000000;stroke-width:0.264583px;stroke-linecap:butt;stroke-linejoin:miter;stroke-opacity:1"
       d="m 72.558787,170.87099 c 1.43316,2.19456 -1.702088,3.53824 -5.509121,3.13522 -3.807034,-0.40302 -8.285869,-2.55286 -9.808861,-4.52367 -1.522991,-1.9708 -0.08976,-3.76233 0.716429,-4.88201 0.806194,-1.11969 0.985346,-1.56757 4.07605,-0.26864 3.090703,1.29893 9.092343,4.34454 10.525503,6.5391 z"
       id="path2216"
       inkscape:path-effect="#path-effect2218"
       inkscape:original-d="m 77.127065,171.72193 c -3.134982,1.34394 -6.270228,2.68762 -9.405739,4.03103 -4.478748,-2.14966 -8.957583,-4.2995 -13.436772,-6.44965 1.433549,-1.79134 2.866776,-3.58287 4.299767,-5.3747 0.179425,-0.44764 0.35858,-0.89552 0.537472,-1.34368 6.002142,3.04599 12.003781,6.0916 18.005272,9.137 z" />
    <path
       style="fill:#93c1c5;fill-opacity:1;stroke:#000000;stroke-width:1.01569;stroke-miterlimit:4;stroke-dasharray:none;stroke-opacity:1"
       d="m 65.561619,172.4689 c -2.392908,-0.62624 -5.726827,-2.39797 -6.848425,-3.63945 -0.906983,-1.00392 -0.994047,-1.22848 -0.877437,-2.26303 0.128344,-1.13866 1.41275,-3.33918 1.94805,-3.3375 0.147804,5.3e-4 1.478044,0.79394 2.956089,1.76329 1.478044,0.96936 4.46868,2.6292 6.645852,3.68854 3.382809,1.64596 3.959278,2.01592 3.96385,2.54387 0.01265,1.4622 -4.313899,2.15346 -7.787979,1.24428 z"
       id="path2224" />
    <path
       style="display:inline;fill:#93c1c5;fill-opacity:1;stroke:#000000;stroke-width:1.01569;stroke-miterlimit:4;stroke-dasharray:none;stroke-opacity:1"
       d="m 128.73524,171.83697 c 2.39291,-0.62624 5.72683,-2.39797 6.84842,-3.63945 0.90699,-1.00392 0.99405,-1.22847 0.87744,-2.26303 -0.12834,-1.13866 -1.41275,-3.33918 -1.94805,-3.3375 -0.1478,5.3e-4 -1.47804,0.79394 -2.95609,1.7633 -1.47804,0.96935 -4.46868,2.62919 -6.64585,3.68853 -3.38281,1.64596 -3.95928,2.01592 -3.96385,2.54387 -0.0126,1.46221 4.3139,2.15346 7.78798,1.24428 z"
       id="path2224-6" />
    <path
       style="fill:none;stroke:#000000;stroke-width:0.374172px;stroke-linecap:butt;stroke-linejoin:miter;stroke-opacity:1"
       d="m 56.197943,72.386179 c -1.082293,-0.889531 -3.247325,-2.194119 -2.97691,-4.803443 0.270414,-2.609324 2.976651,-6.523008 3.585801,-8.717044 0.609151,-2.194035 -0.879282,-2.668422 -3.518114,-1.779024 -2.638831,0.889399 -6.427565,3.142732 -8.186708,6.107973 -1.759143,2.965241 -1.488519,6.64173 -0.541129,9.310222 0.94739,2.668492 2.571131,4.328843 3.653646,5.455544 1.082515,1.126702 1.623762,1.719685 3.044435,1.007854 1.420674,-0.711831 3.720976,-2.727972 4.871124,-3.973068 1.150148,-1.245096 1.150148,-1.719483 0.06786,-2.609014 z"
       id="path2246"
       inkscape:path-effect="#path-effect2248"
       inkscape:original-d="m 57.280236,72.800967 c -2.164634,-1.304239 -4.329667,-2.608826 -6.495099,-3.913766 2.706743,-3.91349 5.41298,-7.827174 8.118874,-11.741287 -1.48809,-0.474057 -2.976523,-0.948443 -4.46538,-1.423186 -3.788483,2.253774 -7.577218,4.507106 -11.366425,6.760134 0.271037,3.676992 0.541658,7.353482 0.811889,11.029695 1.624205,1.660771 3.247947,3.321121 4.871322,4.981154 0.541671,0.593358 1.082917,1.186342 1.623776,1.778985 2.300791,-2.015871 4.601092,-4.032013 6.901043,-6.048543 3.99e-4,-0.474056 3.99e-4,-0.948443 0,-1.423186 z" />
    <path
       style="display:inline;fill:none;stroke:#000000;stroke-width:0.374172px;stroke-linecap:butt;stroke-linejoin:miter;stroke-opacity:1"
       d="m 132.60767,72.40979 c 1.08229,-0.889529 3.24732,-2.194118 2.97691,-4.803445 -0.27041,-2.609327 -2.97665,-6.523002 -3.5858,-8.717038 -0.60915,-2.194037 0.87928,-2.668423 3.51811,-1.779027 2.63883,0.889396 6.42757,3.142731 8.18671,6.107974 1.75915,2.965243 1.48852,6.641722 0.54113,9.310218 -0.94739,2.668496 -2.57113,4.328846 -3.65365,5.455548 -1.08251,1.126703 -1.62375,1.719681 -3.04443,1.007851 -1.42067,-0.711829 -3.72098,-2.727975 -4.87112,-3.973068 -1.15015,-1.245094 -1.15015,-1.719484 -0.0679,-2.609013 z"
       id="path2246-5"
       inkscape:path-effect="#path-effect2271"
       inkscape:original-d="m 131.52538,72.824579 c 2.16463,-1.30424 4.32966,-2.60883 6.4951,-3.91377 -2.70675,-3.91349 -5.41298,-7.827167 -8.11888,-11.741282 1.48809,-0.474057 2.97652,-0.948443 4.46538,-1.423186 3.78848,2.253774 7.57722,4.507111 11.36643,6.760128 -0.27104,3.677 -0.54166,7.35348 -0.81189,11.0297 -1.62421,1.66077 -3.24795,3.32112 -4.87132,4.98115 -0.54168,0.59336 -1.08292,1.18634 -1.62378,1.77899 -2.30079,-2.01587 -4.60109,-4.03202 -6.90104,-6.04855 -4e-4,-0.47405 -4e-4,-0.94844 0,-1.42318 z" />
    <path
       style="fill:#9f8b95;fill-opacity:1;stroke:#000000;stroke-width:3.83884;stroke-miterlimit:4;stroke-dasharray:none;stroke-opacity:1"
       d="m 182.6305,293.12953 c -10.90667,-11.69885 -15.25946,-21.3798 -15.41297,-34.27964 -0.15899,-13.36061 4.07756,-21.89092 15.53229,-31.27434 10.02211,-8.20984 26.19384,-14.03635 30.05782,-10.82953 2.17717,1.80689 1.4966,4.10549 -5.80206,19.5961 -9.6661,20.51522 -9.39664,26.2822 1.67463,35.84043 3.07663,2.65617 5.59387,5.19576 5.59387,5.64354 0,0.44778 -1.25692,1.89795 -2.79315,3.2226 -1.53624,1.32466 -6.53534,5.67027 -11.10913,9.65692 -5.40342,4.7098 -9.17885,7.24846 -10.77971,7.24846 -1.63079,0 -3.98438,-1.63109 -6.96159,-4.82454 z"
       id="path2274"
       transform="scale(0.26458333)" />
    <path
       style="fill:#9f8b95;fill-opacity:1;stroke:#000000;stroke-width:3.83884;stroke-miterlimit:4;stroke-dasharray:none;stroke-opacity:1"
       d="m 523.91316,296.2338 c -1.49766,-1.82554 -17.26392,-15.12532 -21.19161,-17.87639 l -2.42751,-1.70029 5.69739,-5.34869 c 10.2875,-9.65787 10.25562,-14.17534 -0.25723,-36.45184 -3.32772,-7.05137 -6.0504,-14.01285 -6.0504,-15.46996 0,-3.12721 3.0914,-4.30254 8.59902,-3.26931 6.12486,1.14903 19.15792,8.40254 25.64392,14.27203 8.48657,7.6799 11.69841,14.32253 12.27963,25.39632 0.69482,13.23797 -2.55874,22.189 -12.50231,34.39578 -5.7292,7.03319 -7.89028,8.36909 -9.7909,6.05235 z"
       id="path2276"
       transform="scale(0.26458333)" />
    <path
       style="fill:none;stroke:#000000;stroke-width:0.264583px;stroke-linecap:butt;stroke-linejoin:miter;stroke-opacity:1"
       d="m 81.663227,85.47955 c 6.761648,0.9503 7.870126,5.47922 5.63734,8.376931 -2.232786,2.897711 -7.806732,4.164518 -13.681729,5.605552 -5.874996,1.441037 -12.050674,3.056207 -15.45534,4.053847 -3.404666,0.99763 -4.038071,1.37767 -4.924868,-1.01335 -0.886798,-2.39102 -2.026921,-7.553245 3.610666,-11.448951 5.637588,-3.895707 18.052283,-6.524328 24.813931,-5.574029 z"
       id="path2308"
       inkscape:path-effect="#path-effect2310"
       inkscape:original-d="m 87.316322,81.900619 c 1.108742,4.529185 2.217219,9.058105 3.325432,13.586761 -5.573903,1.267122 -11.147849,2.533928 -16.72217,3.800494 -6.17566,1.615506 -12.351337,3.230686 -18.527402,4.845626 -0.633164,0.38032 -1.266566,0.76037 -1.900246,1.14015 -1.139907,-5.16218 -2.280031,-10.324408 -3.420443,-15.487009 12.415456,-2.62846 24.830151,-5.257082 37.244829,-7.886022 z" />
    <path
       style="fill:none;stroke:#000000;stroke-width:0.264583px;stroke-linecap:butt;stroke-linejoin:miter;stroke-opacity:1"
       d="m 109.48601,89.153379 c -5.7009,0.633507 -5.95427,4.148962 -1.44093,6.935923 4.51334,2.786961 13.79269,4.845518 18.62238,6.587548 4.82968,1.74203 5.20972,3.16719 6.74574,2.56526 1.53602,-0.60193 4.22798,-3.23055 5.44746,-4.60815 1.21948,-1.377602 0.96612,-1.504282 0.49095,-2.565193 -0.47517,-1.060912 -1.17191,-3.056131 -7.09436,-5.178222 -5.92245,-2.122092 -17.07034,-4.370672 -22.77124,-3.737166 z"
       id="path2312"
       inkscape:path-effect="#path-effect2314"
       inkscape:original-d="m 104.03849,86.271186 c -0.2531,3.51572 -0.50647,7.031175 -0.7601,10.546368 9.27999,2.058906 18.55934,4.117466 27.83861,6.175796 0.38032,1.42548 0.76036,2.85064 1.14015,4.27556 2.69233,-2.62846 5.38429,-5.25708 8.07605,-7.886024 -0.25311,-0.126421 -0.50647,-0.253101 -0.7601,-0.38005 -0.69651,-1.995033 -1.39325,-3.990253 -2.09027,-5.985775 -11.14807,-2.248405 -22.29596,-4.496985 -33.44434,-6.745875 z" />
    <path
       style="fill:#25a3b7;fill-opacity:1;stroke:#000000;stroke-width:3.83884;stroke-miterlimit:4;stroke-dasharray:none;stroke-opacity:1"
       d="m 205.56439,392.03276 c -3.13379,-2.19498 -5.77272,-10.98184 -5.8058,-19.33156 -0.0697,-17.60562 13.41498,-30.26776 42.57437,-39.97728 23.32777,-7.7677 54.43397,-11.2383 69.89558,-7.79841 12.71711,2.82928 20.3839,9.88885 20.3839,18.76944 0,9.47508 -7.37152,16.5269 -23.37145,22.35784 -4.39881,1.60308 -23.53794,6.87131 -42.5314,11.70719 -28.99299,7.38182 -39.39787,10.16296 -57.4178,15.34732 -0.85508,0.24601 -2.53241,-0.23753 -3.7274,-1.07454 z"
       id="path2316"
       transform="scale(0.26458333)" />
    <path
       style="fill:#25a3b7;fill-opacity:1;stroke:#000000;stroke-width:1.15872;stroke-miterlimit:4;stroke-dasharray:none;stroke-opacity:1"
       d="m 129.17773,103.68796 c -1.46179,-0.78327 -4.80282,-2.14112 -7.4245,-3.01745 -2.62169,-0.876335 -6.43722,-2.160647 -8.47895,-2.854034 -8.65666,-2.939846 -13.13015,-6.53006 -11.35915,-9.116325 1.86479,-2.723239 8.59519,-2.954297 19.08418,-0.655176 10.93812,2.397567 16.35886,5.067838 17.95754,8.845942 l 0.53526,1.264966 -1.11584,1.451178 c -1.61821,2.104529 -5.71568,5.607769 -6.45174,5.516099 -0.0489,-0.006 -1.28501,-0.65194 -2.7468,-1.4352 z"
       id="path2318" />
  </g>
</svg>
