<?xml version="1.0" encoding="UTF-8" standalone="no"?>
<svg
   xmlns:dc="http://purl.org/dc/elements/1.1/"
   xmlns:cc="http://creativecommons.org/ns#"
   xmlns:rdf="http://www.w3.org/1999/02/22-rdf-syntax-ns#"
   xmlns:svg="http://www.w3.org/2000/svg"
   xmlns="http://www.w3.org/2000/svg"
   xmlns:sodipodi="http://sodipodi.sourceforge.net/DTD/sodipodi-0.dtd"
   xmlns:inkscape="http://www.inkscape.org/namespaces/inkscape"
   width="210mm"
   height="297mm"
   viewBox="0 0 210 297"
   version="1.1"
   id="svg8"
   inkscape:version="1.0.2-2 (e86c870879, 2021-01-15)"
   sodipodi:docname="desenho3.svg">
  <defs
     id="defs2">
    <inkscape:path-effect
       effect="bspline"
       id="path-effect2925"
       is_visible="true"
       lpeversion="1"
       weight="33.333333"
       steps="2"
       helper_size="0"
       apply_no_weight="true"
       apply_with_weight="true"
       only_selected="false" />
    <inkscape:path-effect
       effect="bspline"
       id="path-effect2871"
       is_visible="true"
       lpeversion="1"
       weight="33.333333"
       steps="2"
       helper_size="0"
       apply_no_weight="true"
       apply_with_weight="true"
       only_selected="false" />
    <inkscape:path-effect
       effect="bspline"
       id="path-effect2314"
       is_visible="true"
       lpeversion="1"
       weight="33.333333"
       steps="2"
       helper_size="0"
       apply_no_weight="true"
       apply_with_weight="true"
       only_selected="false" />
    <inkscape:path-effect
       effect="bspline"
       id="path-effect2310"
       is_visible="true"
       lpeversion="1"
       weight="33.333333"
       steps="2"
       helper_size="0"
       apply_no_weight="true"
       apply_with_weight="true"
       only_selected="false" />
    <inkscape:path-effect
       effect="bspline"
       id="path-effect2292"
       is_visible="true"
       lpeversion="1"
       weight="33.333333"
       steps="2"
       helper_size="0"
       apply_no_weight="true"
       apply_with_weight="true"
       only_selected="false" />
    <inkscape:path-effect
       effect="bspline"
       id="path-effect2271"
       is_visible="true"
       lpeversion="1"
       weight="33.333333"
       steps="2"
       helper_size="0"
       apply_no_weight="true"
       apply_with_weight="true"
       only_selected="false" />
    <inkscape:path-effect
       effect="bspline"
       id="path-effect2248"
       is_visible="true"
       lpeversion="1"
       weight="33.333333"
       steps="2"
       helper_size="0"
       apply_no_weight="true"
       apply_with_weight="true"
       only_selected="false" />
    <inkscape:path-effect
       effect="bspline"
       id="path-effect2222"
       is_visible="true"
       lpeversion="1"
       weight="33.333333"
       steps="2"
       helper_size="0"
       apply_no_weight="true"
       apply_with_weight="true"
       only_selected="false" />
    <inkscape:path-effect
       effect="bspline"
       id="path-effect2218"
       is_visible="true"
       lpeversion="1"
       weight="33.333333"
       steps="2"
       helper_size="0"
       apply_no_weight="true"
       apply_with_weight="true"
       only_selected="false" />
    <inkscape:path-effect
       effect="bspline"
       id="path-effect2214"
       is_visible="true"
       lpeversion="1"
       weight="33.333333"
       steps="2"
       helper_size="0"
       apply_no_weight="true"
       apply_with_weight="true"
       only_selected="false" />
    <inkscape:path-effect
       effect="bspline"
       id="path-effect2208"
       is_visible="true"
       lpeversion="1"
       weight="33.333333"
       steps="2"
       helper_size="0"
       apply_no_weight="true"
       apply_with_weight="true"
       only_selected="false" />
    <inkscape:path-effect
       effect="bspline"
       id="path-effect2622"
       is_visible="true"
       lpeversion="1"
       weight="33.333333"
       steps="2"
       helper_size="0"
       apply_no_weight="true"
       apply_with_weight="true"
       only_selected="false" />
  </defs>
  <sodipodi:namedview
     id="base"
     pagecolor="#ffffff"
     bordercolor="#666666"
     borderopacity="1.0"
     inkscape:pageopacity="0.0"
     inkscape:pageshadow="2"
     inkscape:zoom="1.1884148"
     inkscape:cx="87.787394"
     inkscape:cy="572.38742"
     inkscape:document-units="mm"
     inkscape:current-layer="layer1"
     inkscape:document-rotation="0"
     showgrid="false"
     inkscape:window-width="1920"
     inkscape:window-height="1001"
     inkscape:window-x="-9"
     inkscape:window-y="-9"
     inkscape:window-maximized="1" />
  <metadata
     id="metadata5">
    <rdf:RDF>
      <cc:Work
         rdf:about="">
        <dc:format>image/svg+xml</dc:format>
        <dc:type
           rdf:resource="http://purl.org/dc/dcmitype/StillImage" />
        <dc:title></dc:title>
      </cc:Work>
    </rdf:RDF>
  </metadata>
  <g
     inkscape:label="Layer 1"
     inkscape:groupmode="layer"
     id="layer1"
     style="display:inline">
    <path
       style="fill:none;stroke:#000000;stroke-width:0.264583px;stroke-linecap:butt;stroke-linejoin:miter;stroke-opacity:1"
       d="M 2.7761329,48.47555 Z"
       id="path946" />
    <path
       style="fill:#000000;stroke:#000000;stroke-width:1.07852;stroke-miterlimit:4;stroke-dasharray:none;stroke-opacity:1"
       d=""
       id="path1098"
       transform="scale(0.26458333)" />
    <path
       style="fill:none;stroke:#000000;stroke-width:0.264583px;stroke-linecap:butt;stroke-linejoin:miter;stroke-opacity:1"
       d="m 55.935521,93.46142 c 0.0601,0.01201 0.127744,0.0045 0.180298,0.03606 0.02088,0.01251 -0.01251,0.273019 0,0.360596 0.02697,0.188793 0.153048,0.446751 0.07212,0.649073 -0.01262,0.03157 -0.05692,0.04171 -0.07212,0.07212 -0.02289,0.0458 0.0063,0.208251 0,0.252418 -0.02286,0.15997 -0.0667,0.12799 -0.108178,0.252418 -0.02148,0.06443 0.02514,0.153506 0,0.216358 -0.01609,0.04024 -0.05841,0.06706 -0.07212,0.108177 -0.03554,0.106635 -0.0083,0.213313 -0.03606,0.324538 -0.01942,0.07764 -0.05545,0.133038 -0.07212,0.216358 -0.02043,0.102118 0.02569,0.298836 -0.03606,0.360595 -0.019,0.019 -0.05312,0.01707 -0.07212,0.03606 -0.01667,0.01667 0.01087,0.08641 0,0.108178 -0.124621,0.249245 -0.07666,0.559059 -0.144237,0.829371 -0.01799,0.072 0.0041,0.192214 -0.03606,0.252417 -0.01887,0.02829 -0.05692,0.04171 -0.07212,0.07212 -0.02474,0.04949 0.03683,0.17953 0,0.216357 -0.019,0.019 -0.0601,0.01201 -0.07212,0.03606 -0.04824,0.09648 -0.004,0.300566 -0.03606,0.396656 -0.15966,0.47898 -0.10818,1.00391 -0.10818,1.5145 0,0.26035 0.05243,1.23266 0,1.44239 -0.06479,0.25916 -0.07212,0.52315 -0.07212,0.79331"
       id="path2516" />
    <path
       style="fill:none;stroke:#000000;stroke-width:0.264583px;stroke-linecap:butt;stroke-linejoin:miter;stroke-opacity:1"
       d="m 57.161552,95.949573 c -0.04499,0.203131 0.05707,0.449347 0,0.649073 -0.0093,0.03269 -0.05691,0.04171 -0.07212,0.07212 -0.109675,0.219352 -0.147899,0.494741 -0.252415,0.721193 -0.05546,0.120158 -0.138483,0.199088 -0.1803,0.324535 -0.08629,0.09806 -0.004,0.220506 -0.03606,0.324538 -0.05037,0.163698 -0.139028,0.368768 -0.252417,0.504828 -0.02178,0.0261 -0.05692,0.0417 -0.07212,0.0721 -0.0327,0.0654 -0.01109,0.14765 -0.03606,0.21636 -0.03128,0.086 -0.07923,0.16557 -0.108177,0.25242 -0.0076,0.0228 0.01074,0.0506 0,0.0721 -0.02688,0.0537 -0.0813,0.0905 -0.10818,0.14424 -0.05821,0.11642 -0.05975,0.27557 -0.108178,0.39665 -0.02876,0.0719 -0.108937,0.14575 -0.144238,0.21636 -0.04961,0.0992 -0.0036,0.22723 -0.03606,0.32453 -0.04546,0.13639 -0.10818,0.28364 -0.10818,0.43272 0,0.0481 0.04,0.11757 0,0.14424 -0.0769,0.0513 -0.180297,0.0776 -0.180297,0.21636 0,0.25327 0.034,0.0572 -0.07212,0.21636 -0.01913,0.0287 -0.04408,0.3486 -0.07212,0.43271 -0.01643,0.0493 0.02638,0.31794 0,0.32454 -0.04665,0.0117 -0.09616,0 -0.144246,0"
       id="path2520" />
    <path
       style="fill:none;stroke:#000000;stroke-width:0.264583px;stroke-linecap:butt;stroke-linejoin:miter;stroke-opacity:1"
       d="m 53.880124,95.33658 c 0.04808,0.08414 0.108246,0.162441 0.144238,0.252418 0.04042,0.101057 0.0074,0.219524 0.03606,0.324535 0.01704,0.06245 0.05808,0.11711 0.07212,0.180297 0.01042,0.04694 -0.0068,0.09664 0,0.144238 0.02516,0.176125 0.07267,0.327306 0.108177,0.504836 0.01442,0.07212 -0.02885,0.144237 0,0.216357 0.06565,0.164132 0.22583,0.282665 0.252418,0.468776 0.03985,0.278955 0.05444,0.668153 0.144238,0.937553 0.01074,0.0323 0.05949,0.0405 0.07212,0.0721 0.02809,0.0702 -0.01498,0.17749 0,0.25241 0.02244,0.11223 0.05004,0.21415 0.07212,0.32454 0.03297,0.16486 -0.03847,0.39183 0.03606,0.54089 0.01521,0.0304 0.05873,0.0409 0.07212,0.0721 0.02416,0.0563 0.01667,0.12216 0.03606,0.1803 0.0054,0.0161 0.03194,0.0196 0.03606,0.0361 0.02167,0.0867 -0.03229,0.11195 0.03606,0.1803 0.0425,0.0425 0.101743,0.0657 0.14424,0.10818 0.02392,0.0239 0.04391,0.14268 0.07212,0.18029 0.0204,0.0272 0.05326,0.0438 0.07212,0.0721 0.05679,0.0852 0.11693,0.92946 0.07212,1.08179 -0.05363,0.18232 -0.120208,0.36057 -0.180311,0.54086"
       id="path2522" />
    <path
       style="fill:none;stroke:#000000;stroke-width:0.264583px;stroke-linecap:butt;stroke-linejoin:miter;stroke-opacity:1"
       d="m 52.545913,96.165847 c 0.127777,0.144078 0.160287,0.37506 0.252417,0.540893 0.02919,0.05254 0.0813,0.09048 0.108178,0.14424 0.05722,0.114435 0.04505,0.225345 0.14424,0.324535 0.07212,0.07212 0.155162,0.134763 0.216358,0.216358 0.198797,0.265065 0.475353,0.967953 0.576953,1.298143 0.01061,0.0345 -0.0114,0.074 0,0.10818 0.01371,0.0411 0.05505,0.0683 0.07212,0.10818 0.01953,0.0455 0.0051,0.10554 0.03606,0.14424 0.03237,0.0405 0.150918,0.0561 0.1803,0.14424 0.01138,0.0341 0.04901,0.27831 0.07212,0.324534 0.09216,0.18433 0.124474,0.0931 0.180298,0.28848 0.06169,0.21592 -0.09353,-0.007 0.03606,0.25242 0.0421,0.0842 0.09158,0.0807 0.10818,0.18029 0.01714,0.10282 -0.02045,0.22234 0,0.32454 0.0033,0.0167 0.03194,0.0196 0.03606,0.0361 0.02061,0.0825 0.01545,0.16996 0.03606,0.25242 0.06033,0.24133 0.08249,0.13198 0.180297,0.28848 0.07984,0.12774 0.148286,0.29656 0.216358,0.43271 0.03714,0.0743 -0.0011,0.21442 0.03606,0.28848 0.02027,0.0405 0.09394,0.0655 0.10818,0.10818 0.101341,0.30402 -0.04224,0.0598 0.108178,0.36059 0.01939,0.0388 0.08457,0.14969 0.07212,0.10818 -0.04369,-0.14563 -0.09616,-0.28847 -0.144246,-0.43271"
       id="path2524" />
    <rect
       style="fill:#ffff00;fill-opacity:1;stroke:#000000;stroke-width:0.512189;stroke-miterlimit:4;stroke-dasharray:none;stroke-opacity:1"
       id="rect2660"
       width="27.637863"
       height="58.532753"
       x="42.833275"
       y="99.857155"
       ry="13.349577" />
    <ellipse
       style="fill:#000000;fill-opacity:1;stroke:#000000;stroke-width:0.499999;stroke-miterlimit:4;stroke-dasharray:none;stroke-opacity:1"
       id="path2672"
       cx="56.554688"
       cy="116.54896"
       rx="8.1359377"
       ry="7.9375" />
    <ellipse
       style="fill:#ffffff;fill-opacity:1;stroke:#000000;stroke-width:0.432903;stroke-miterlimit:4;stroke-dasharray:none;stroke-opacity:1"
       id="path2701"
       cx="56.488537"
       cy="116.44973"
       rx="6.9788604"
       ry="6.879642" />
    <ellipse
       style="fill:#000000;fill-opacity:1;stroke:#000000;stroke-width:0.499999;stroke-miterlimit:4;stroke-dasharray:none;stroke-opacity:1"
       id="path2703"
       cx="56.78141"
       cy="116.08852"
       rx="2.7127855"
       ry="2.6192415" />
    <rect
       style="fill:#000000;fill-opacity:1;stroke:#000000;stroke-width:0.499999;stroke-miterlimit:4;stroke-dasharray:none;stroke-opacity:1"
       id="rect2705"
       width="6.7351913"
       height="1.4967078"
       x="63.890778"
       y="113.74991"
       ry="0.7483539" />
    <rect
       style="fill:#000000;fill-opacity:1;stroke:#000000;stroke-width:0.499999;stroke-miterlimit:4;stroke-dasharray:none;stroke-opacity:1"
       id="rect2707"
       width="6.3610144"
       height="1.4967093"
       x="42.843307"
       y="114.03054"
       ry="0.74835467" />
    <path
       style="fill:none;stroke:#000000;stroke-width:0.264583px;stroke-linecap:butt;stroke-linejoin:miter;stroke-opacity:1"
       d="m 42.749761,129.27827 c 1.871151,1.83997 5.799748,6.64164 5.799748,6.64164 l 16.276714,-0.18708 5.332026,-6.08038 v 3.74177 l -3.367595,4.8643 v 4.86431 h 3.648228 l -0.09354,0.0935 -3.741775,-0.18709 -0.187087,-4.77076 3.554685,-4.39658 0.280633,-3.83532 -0.280633,-0.37417 -5.144939,5.98683 -16.463803,0.28063 z"
       id="path2709" />
    <path
       style="fill:none;stroke:#000000;stroke-width:0.264583px;stroke-linecap:butt;stroke-linejoin:miter;stroke-opacity:1"
       d="m 42.93685,132.55232 c 3.741772,4.58367 3.741772,4.86431 3.741772,4.86431 l 0.09354,5.14493 -4.022404,-0.46772 4.022404,0.0935 -0.280633,-4.67722 z"
       id="path2713" />
    <path
       style="fill:#04a1ee;fill-opacity:1;stroke:#000000;stroke-width:0.668132;stroke-miterlimit:4;stroke-dasharray:none;stroke-opacity:1"
       d="m 205.95906,597.11331 c -22.4298,-3.16541 -39.83273,-20.74041 -42.5422,-42.96285 -0.21338,-1.75009 -0.38842,-6.08553 -0.38896,-9.63433 -9.7e-4,-6.26694 0.0198,-6.45235 0.72293,-6.45235 0.39816,0 3.58754,0.33732 7.08752,0.74959 3.49997,0.41227 6.43016,0.68301 6.51152,0.60164 0.0814,-0.0814 0.0482,-4.7302 -0.0737,-10.33076 l -0.22162,-10.18282 -2.05,-2.88158 c -1.1275,-1.58487 -4.28091,-5.66581 -7.00758,-9.06876 l -4.95757,-6.18719 -0.006,-4.52867 c -0.003,-2.49077 0.11307,-4.45312 0.25891,-4.36077 0.14584,0.0923 4.48129,5.1967 9.63433,11.34302 l 9.36916,11.17513 16.44023,-0.18632 c 9.04213,-0.10248 23.25737,-0.28575 31.58943,-0.40726 l 15.14919,-0.22094 9.42277,-10.76766 9.42277,-10.76765 0.10674,1.99792 c 0.0587,1.09886 -0.0509,3.97032 -0.24352,6.38102 -0.34648,4.33576 -0.36645,4.4071 -1.84892,6.60528 -0.82426,1.2222 -3.7444,5.00642 -6.4892,8.40937 -2.74481,3.40295 -5.11218,6.38565 -5.26082,6.62823 -0.43909,0.71655 0.45378,18.94674 0.94321,19.25798 0.22997,0.14625 2.32733,0.26948 4.66078,0.27384 2.33345,0.004 5.31656,0.10935 6.62913,0.23331 l 2.38648,0.22539 v 4.46596 c 0,7.63607 -1.03512,13.55037 -3.43916,19.6502 -5.98774,15.19281 -18.92026,26.31255 -35.00582,30.09899 -3.29336,0.77523 -4.80242,0.9124 -11.22927,1.02074 -4.08354,0.0688 -8.39028,-0.0111 -9.57052,-0.1777 z"
       id="path2715"
       transform="scale(0.26458333)" />
    <path
       style="fill:none;stroke:#000000;stroke-width:0.264583px;stroke-linecap:butt;stroke-linejoin:miter;stroke-opacity:1"
       d="m 46.772163,142.56156 c -0.123622,-0.094 -0.230225,-0.21606 -0.370862,-0.28187 -0.129301,-0.0605 -0.605808,0.0316 -0.727604,0.0992 -0.206658,0.11481 -0.0092,0.0992 -0.165364,0.0992 -0.01103,0 0.02283,0.004 0.03307,0 0.04577,-0.0183 0.08652,-0.0478 0.132291,-0.0661 0.09343,-0.0374 0.07813,-0.0331 0.231511,-0.0331 0.187412,0 0.374827,0 0.562239,0 0.110244,0 0.220486,0 0.330729,0 0.01103,0 0.03463,-0.0109 0.03307,0 -0.009,0.0634 -0.03939,0.12177 -0.05909,0.18266"
       id="path2725" />
    <path
       style="fill:none;stroke:#000000;stroke-width:0.264583px;stroke-linecap:butt;stroke-linejoin:miter;stroke-opacity:1"
       d="m 46.772152,142.56155 c -0.01159,0.91997 -0.007,1.8406 -0.007,2.76084 0,0.15298 -0.0433,0.64221 0,0.79375 0.01093,0.0382 0.05651,0.0607 0.06615,0.0992 0.0259,0.10359 0.07537,0.98834 0.03307,1.15755 -0.01196,0.0478 -0.05055,0.0855 -0.06615,0.1323 -0.007,0.0209 0,0.0441 0,0.0661 0.0441,-1.60955 0.08663,-3.21914 0.132292,-4.82864 0.0016,-0.0551 -0.0046,0.11043 0,0.16536 0.0065,0.0777 0.02752,0.15376 0.03307,0.23151 0.0055,0.077 0,0.15434 0,0.23151 0.02204,0.0882 0.05552,0.1743 0.06614,0.26459 0.02734,0.23238 0,0.4919 0,0.7276 0,0.54019 0,1.08038 0,1.62057 0,0.18929 0.04739,0.8116 -0.03307,0.95912 -0.05321,0.0975 -0.572072,0.71972 -0.628386,0.76067 -0.04419,0.0321 -0.32739,0.11773 -0.363802,0.1323 -0.17876,0.0715 -0.342384,0.18481 -0.529167,0.23151 -1.022188,0.20443 0.07173,-0.0638 -0.46302,0.16536 -0.0304,0.013 -0.06615,0 -0.09922,0 -0.03307,0.022 -0.06367,0.0484 -0.09922,0.0661 -0.09808,0.049 -1.111626,0 -1.223698,0"
       id="path2729" />
    <path
       style="fill:none;stroke:#000000;stroke-width:0.264583px;stroke-linecap:butt;stroke-linejoin:miter;stroke-opacity:1"
       d="m 66.790654,143.12283 c -0.01651,0.20402 -0.0079,0.41164 -0.04951,0.61206 -0.02003,0.0965 -0.11012,0.16851 -0.132292,0.26459 -0.182779,0.79204 -0.06615,1.70184 -0.06615,2.51354 0,0.24905 -0.04051,0.95168 0.132292,1.12448 0.163984,0.16398 0.174141,0.094 0.330729,0.19844 0.02596,0.0173 0.0441,0.0441 0.06615,0.0661 0.110244,0.11024 0.199197,0.24703 0.330729,0.33073 0.511157,0.32528 1.249159,0.30741 1.785938,0.39688 0.11712,0.0195 0.218085,0.0947 0.330729,0.13229 0.249655,0.0832 0.468148,0.0661 0.727604,0.0661"
       id="path2731" />
    <path
       style="fill:none;stroke:#000000;stroke-width:0.264583px;stroke-linecap:butt;stroke-linejoin:miter;stroke-opacity:1"
       d="m 67.094673,137.60372 c -0.227761,-0.0911 -0.409001,0.1101 -0.584652,0.21047 -0.123566,0.0706 -0.106675,0.003 -0.163703,0.11693 -0.01225,0.0245 0,0.0899 0,0.11693 0,0.22134 -0.04487,0.56697 0.02339,0.77174 0.0099,0.0296 -0.0099,0.064 0,0.0935 0.0089,0.0267 0.03905,0.0431 0.04677,0.0702 0.02299,0.0804 0,0.22147 0,0.30402 0,0.0955 0.0062,0.24632 0.04677,0.32741 0.02013,0.0402 -0.0105,0.12173 0,0.1637 0.0068,0.0272 0.03997,0.0663 0.04677,0.0936 0.01524,0.061 -0.01148,0.13479 0.02339,0.18708 0.06255,0.0938 0.09354,0.18206 0.09354,0.30402 0,0.13017 0.03002,0.27716 0.07016,0.39756 0.01135,0.0341 -0.01378,0.23387 0,0.23387 0.08638,0 0.13376,-0.57332 0.140316,-0.6782 0.0333,-0.53276 0,-1.07947 0,-1.61364 0,-0.17272 -0.03456,-0.54605 0,-0.70158 0.0076,-0.034 0.0376,-0.0599 0.04677,-0.0936 0.02093,-0.0767 0.03118,-0.1559 0.04677,-0.23386 0.02058,-0.10295 -0.01974,-0.1313 0.163703,-0.0701 0.04961,0.0165 0.09135,0.0518 0.140316,0.0701 0.09248,0.0347 0.01122,-0.0355 0.07016,0.0234"
       id="path2741" />
    <path
       style="fill:none;stroke:#000000;stroke-width:0.264583px;stroke-linecap:butt;stroke-linejoin:miter;stroke-opacity:1"
       d="M 66.743881,138.93672 66.41648,138.25848"
       id="path2743" />
    <path
       style="fill:none;stroke:#000000;stroke-width:0.264583px;stroke-linecap:butt;stroke-linejoin:miter;stroke-opacity:1"
       d="m 66.673724,139.82539 0.11693,-1.56687"
       id="path2745" />
    <path
       style="fill:none;stroke:#000000;stroke-width:0.264583px;stroke-linecap:butt;stroke-linejoin:miter;stroke-opacity:1"
       d="m 66.743881,138.93672 c -0.04677,0.13252 -0.109831,0.26038 -0.140317,0.39756 -0.01942,0.0874 0.11588,-0.0255 0.04677,-0.1637 -0.0086,-0.0172 -0.07631,-0.0591 -0.07016,-0.0702 0.03748,-0.0675 0.109133,-0.10913 0.163701,-0.1637"
       id="path2747" />
    <path
       style="fill:none;stroke:#000000;stroke-width:0.264583px;stroke-linecap:butt;stroke-linejoin:miter;stroke-opacity:1"
       d="m 66.790654,138.25852 c -0.0078,-0.0935 0.01474,-0.19485 -0.02339,-0.28063 -0.01344,-0.0302 -0.04677,0.0468 -0.07016,0.0702 -0.145664,0.14566 0.05127,-0.0652 -0.07016,0.11693 -0.02445,0.0367 -0.0796,0.0517 -0.09354,0.0935 -0.03425,0.10276 0,0.3018 0,0.42095 0,0.31182 0,0.62363 0,0.93545 0,0.11693 0,0.23386 0,0.35079 0,0.0312 0,0.0624 0,0.0935 0,0.008 -0.0078,0.0234 0,0.0234 0.02214,0 0.109339,-0.13334 0.11693,-0.1637 0.0038,-0.0151 -0.0087,-0.0338 0,-0.0468 0.0097,-0.0145 0.0378,-0.008 0.04677,-0.0234 0.01654,-0.0276 0.01209,-0.0635 0.02339,-0.0935 0.04951,-0.13202 0.04533,-0.0849 0.07016,-0.23386 0.01077,-0.0647 -0.01857,-0.11282 0,-0.18709 0.01267,-0.0507 0.062,-0.0887 0.07016,-0.14031 0.0569,-0.36037 -0.04328,-0.19988 0.02339,-0.44434 0.01106,-0.0405 0.03524,-0.0766 0.04677,-0.11693 0.02069,-0.0725 -0.01828,-0.16068 0,-0.23386 0.0027,-0.0107 0.01558,-0.0156 0.02339,-0.0234 0,-0.0234 0,-0.0468 0,-0.0702 0,-0.0546 0,-0.10913 0,-0.1637 0,-0.008 0.0063,-0.0279 0,-0.0234 -0.05848,0.0418 -0.109136,0.0935 -0.163703,0.14031"
       id="path2749" />
    <path
       style="fill:none;stroke:#000000;stroke-width:0.264583px;stroke-linecap:butt;stroke-linejoin:miter;stroke-opacity:1"
       d="m 66.603567,143.02924 c 0.01558,0.0468 0.03481,0.0925 0.04677,0.14036 0.02934,0.11739 -0.02935,0.25679 0,0.37418 0.02426,0.0971 0.02339,0.17892 0.02339,0.28063 0,0.0546 0,0.10914 0,0.16371 0,0.0156 -0.01558,0.0468 0,0.0468 0.01045,0 -0.03455,-0.14537 -0.04677,-0.16371 -0.04334,-0.065 -0.0011,-0.12049 -0.02339,-0.18708 -0.0089,-0.0267 -0.0342,-0.045 -0.04677,-0.0702 -0.01548,-0.0309 -0.03689,-0.41283 -0.02339,-0.44434 0.0066,-0.0153 0.170918,-0.3139 0.11693,-0.3274 -0.06235,-0.0156 -0.03118,0.12469 -0.04677,0.18704"
       id="path2755" />
    <path
       style="fill:none;stroke:#000000;stroke-width:0.264583px;stroke-linecap:butt;stroke-linejoin:miter;stroke-opacity:1"
       d="m 66.626951,147.28555 c 0.04518,0.12472 -0.06451,0.35052 0.02339,0.46772 0.01045,0.014 0.03445,0.0111 0.04677,0.0234 0.09127,0.0913 -0.0054,0.0126 0.02339,0.0702 0.06189,0.12378 0.180515,0.21231 0.257247,0.32741 0.04015,0.0602 0.100713,0.1043 0.140316,0.1637 0.01934,0.029 0.01775,0.0742 0.04677,0.0935 0.04541,0.0303 0.109468,-0.006 0.163703,0 0.07087,0.008 0.141943,0.0296 0.210476,0.0468 0.07048,0.0176 0.161001,0 0.233859,0"
       id="path2757" />
    <path
       style="fill:none;stroke:#000000;stroke-width:0.264583px;stroke-linecap:butt;stroke-linejoin:miter;stroke-opacity:1"
       d="m 63.285687,129.01149 c -4.722813,-2.51883 -12.515453,-0.23614 -12.515453,-0.23614 l 0.23614,-0.15742"
       id="path2775" />
    <path
       style="fill:none;stroke:#000000;stroke-width:0.264583px;stroke-linecap:butt;stroke-linejoin:miter;stroke-opacity:1"
       d="m 43.371161,129.99541 c -0.05248,0.0131 -0.104071,0.0305 -0.157427,0.0394 -0.272476,0.0454 0.02061,-0.16769 0,-0.19678 -0.140137,-0.19772 -0.309317,-0.37315 -0.463973,-0.55972"
       id="path2789" />
    <path
       style="fill:none;stroke:#000000;stroke-width:0.264583px;stroke-linecap:butt;stroke-linejoin:miter;stroke-opacity:1"
       d="m 42.544669,135.66279 c 0,0.0525 0.01659,0.10764 0,0.15742 -0.06293,0.18881 -0.452305,0.37366 -0.629709,0.51164 -0.222284,0.17289 -0.407426,0.37811 -0.629708,0.551 -0.359402,0.27953 -1.063403,0.67035 -1.298773,1.06263 -0.06368,0.10613 -0.141436,0.20416 -0.196784,0.31485 -0.04838,0.0968 -0.02138,0.22312 -0.07871,0.31486 -0.03933,0.0629 -0.114292,0.097 -0.157427,0.15743 -0.01733,0.0243 -0.04293,0.16696 -0.07871,0.19678 -0.05877,0.049 -0.136401,0.0711 -0.196784,0.11807 -0.245703,0.1911 -0.117753,0.15679 -0.275498,0.47228 -0.227597,0.45519 0.03919,-0.23571 -0.11807,0.15743 -0.113062,0.28265 -0.202136,1.66463 -0.07871,1.84977 0.03087,0.0463 0.07871,0.0787 0.11807,0.11807 0.07871,0.13118 0.151275,0.26627 0.23614,0.39356 0.06175,0.0926 0.165651,0.14999 0.236141,0.23614 0.194966,0.23829 0.328972,0.51293 0.511638,0.74778 0.06493,0.0835 0.08264,0.20071 0.157427,0.2755 0.09277,0.0928 0.222089,0.14338 0.314854,0.23614 0.143574,0.14357 0.01085,0.12055 0.196784,0.2755 0.03187,0.0266 0.0825,0.018 0.118071,0.0394 0.09737,0.0584 0.07699,0.11634 0.157427,0.19678 0.124161,0.12416 0.309948,0.19188 0.432924,0.31485 0.109585,0.10959 0.193384,0.2501 0.314854,0.35421 0.149725,0.12834 0.374378,0.21695 0.511638,0.35422 0.04645,0.0464 0.04565,0.17264 0.118071,0.19678 0.235712,0.0786 0.09339,0.0885 0.196783,0.15743 0.02183,0.0145 0.05382,-0.008 0.07871,0 0.121968,0.0406 0.158602,0.0799 0.236141,0.15742"
       id="path2809" />
    <path
       style="fill:none;stroke:#000000;stroke-width:0.264583px;stroke-linecap:butt;stroke-linejoin:miter;stroke-opacity:1"
       d="m 42.859523,138.9294 c -0.302379,-0.18438 -0.451877,0.0725 -0.590352,0.31485 -0.0635,0.11113 -0.01029,0.10556 -0.07871,0.19679 -0.135861,0.18114 -0.280781,0.40942 -0.354211,0.62971 -0.03855,0.11563 0.06924,0.061 -0.03936,0.19678 -0.02955,0.0369 -0.09373,0.0382 -0.11807,0.0787 -0.02024,0.0337 0,0.0787 0,0.11807 0,0.10488 -0.03964,0.55043 0,0.62971 0.05615,0.11231 0.17014,0.26035 0.196784,0.39357 0.02021,0.10113 0.0096,0.22266 0.07871,0.31485 0.0176,0.0235 0.05797,0.0186 0.07871,0.0394 0.07594,0.0759 0.13232,0.24564 0.23614,0.31485 0.004,0.003 0.169694,0.0639 0.196784,0.11807 0.01855,0.0371 0.01003,0.0887 0.03936,0.11808 0.01855,0.0185 0.05382,-0.008 0.07871,0 0.0352,0.0117 0.06573,0.11347 0.07871,0.0787 0.04521,-0.12102 0.05801,-0.25178 0.08702,-0.37767"
       id="path2825" />
    <path
       style="fill:none;stroke:#000000;stroke-width:0.264583px;stroke-linecap:butt;stroke-linejoin:miter;stroke-opacity:1"
       d="m 70.566689,139.36232 c 0.0656,0 0.131847,-0.009 0.196784,0 0.05808,0.008 0.0999,0.0672 0.157427,0.0787 0.154766,0.031 0.264216,-0.006 0.432925,0.0394 0.16034,0.0428 0.31029,0.12143 0.472281,0.15743 0.0779,0.0173 0.164766,0.004 0.23614,0.0394 0.0054,0.003 0.34371,0.30435 0.393568,0.35421 0.0473,0.0473 0.0094,0.13695 0.03936,0.19678 0.02933,0.0587 0.07871,0.10495 0.11807,0.15743 0.02625,0.0918 0.04518,0.18607 0.07871,0.2755 0.01302,0.0347 0.06212,0.0455 0.07871,0.0787 0.03681,0.0736 -0.01913,0.23838 0,0.31485 0.01423,0.0569 0.06449,0.10051 0.07871,0.15743 0.03613,0.14451 0.02572,0.43597 0,0.59035 -0.02652,0.15914 -0.08179,0.009 -0.11807,0.11807 -0.0083,0.0249 0.01574,0.0577 0,0.0787 -0.02838,0.0378 -0.08463,0.0453 -0.118071,0.0787 -0.09782,0.0978 -0.266287,0.45888 -0.354211,0.51164 -0.243279,0.14597 -0.542308,0.46359 -0.747778,0.66906 -0.08418,0.0842 -0.238557,0.0811 -0.314854,0.15743 -0.05562,0.0556 -0.07953,0.15784 -0.157428,0.19678 -0.02719,0.0136 -0.273142,0.0828 -0.314854,0.0394 -0.133252,-0.13891 -0.252515,-0.29059 -0.378775,-0.43588"
       id="path2831" />
    <path
       style="fill:none;stroke:#000000;stroke-width:0.264583px;stroke-linecap:butt;stroke-linejoin:miter;stroke-opacity:1"
       d="m 70.487976,134.99372 c 0.146462,0.0565 0.20784,0.22061 0.354211,0.2755 0.06263,0.0235 0.136951,0.009 0.196783,0.0394 0.139936,0.07 0.0758,0.0991 0.157428,0.15742 0.276717,0.19766 0.582702,0.3528 0.865848,0.551 0.09695,0.16626 0.296151,0.14496 0.432925,0.23614 0.02439,0.0163 0.01312,0.0656 0.03936,0.0787 0.05983,0.0299 0.135297,0.013 0.196784,0.0394 0.0469,0.0201 0.194675,0.23463 0.196783,0.23614 0.04402,0.0314 0.113411,0.008 0.157428,0.0394 0.05338,0.0381 0.07169,0.11104 0.11807,0.15742 0.114321,0.11432 0.278336,0.19963 0.393568,0.31486 0.139697,0.1397 0.246012,0.30998 0.35421,0.47228 0.08642,0.12963 0.225648,0.2204 0.314855,0.35421 0.09392,0.14087 0.198649,0.40574 0.314854,0.55099 0.05245,0.0656 0.157837,0.15825 0.196784,0.23615 0.03999,0.08 0.036,0.22943 0.07871,0.31485 0.01659,0.0332 0.06569,0.044 0.07871,0.0787 0.07031,0.18751 0.09382,0.4389 0.157427,0.62971 0.152643,0.45793 -0.01066,0.0681 0.157427,0.23614 0.02154,0.0215 0.07307,0.47778 0.07871,0.51164 0.05455,0.32729 0.0108,0.0324 0.07871,0.23614 0.05629,0.16888 0.0011,1.17696 -0.03936,1.33813 -0.02469,0.0988 0.02469,0.21608 0,0.31486 -0.04205,0.16821 -0.173982,0.27131 -0.23614,0.43292 -0.119944,0.31185 -0.08316,0.36742 -0.275498,0.62971 -0.104375,0.14233 -0.27528,0.2357 -0.354211,0.39357 -0.01855,0.0371 -0.01003,0.0887 -0.03936,0.11807 -0.0894,0.0894 -0.327641,0.0872 -0.432924,0.15742 -0.270253,0.18017 -0.416581,0.1267 -0.708422,0.23614 -0.109868,0.0412 -0.206542,0.1123 -0.314854,0.15743 -0.08193,0.0341 -0.278008,0.0553 -0.354211,0.0787 -0.272796,0.0839 -0.42921,0.23429 -0.669065,0.35422 -0.1275,0.0637 -0.27314,0.0972 -0.393568,0.15742 -0.04198,0.021 -0.115445,-0.021 -0.157427,0 -0.01659,0.008 -0.02625,0.0263 -0.03936,0.0394 -0.03936,0.0394 -0.06691,0.0961 -0.11807,0.11807 -0.04823,0.0207 -0.105971,-0.0103 -0.157427,0 -0.05753,0.0115 -0.101769,0.0602 -0.157427,0.0787"
       id="path2841" />
    <path
       style="fill:#ffff00;fill-opacity:1;stroke:#000000;stroke-width:1.12441;stroke-miterlimit:4;stroke-dasharray:none;stroke-opacity:1"
       d="m 160.01973,548.2909 c -0.16362,-0.33353 -1.73625,-1.80615 -3.49471,-3.2725 -1.75847,-1.46636 -4.50291,-4.39736 -6.09875,-6.51333 -2.52226,-3.34434 -2.90154,-4.21567 -2.90154,-6.66576 0,-2.76119 0.95704,-5.84951 1.81271,-5.84951 0.23744,0 0.87534,-0.9349 1.41757,-2.07756 0.82021,-1.72847 8.44239,-8.63244 9.53046,-8.63244 0.60426,0 0.33863,8.84898 -0.27705,9.22949 -0.92097,0.56919 -3.55869,6.04132 -3.55869,7.38273 0,1.69766 1.19479,4.2677 2.81637,6.05812 1.26329,1.39484 1.38454,2.01241 1.2265,6.2475 -0.0965,2.58481 -0.30924,4.42678 -0.47287,4.09326 z"
       id="path2865"
       transform="scale(0.26458333)" />
    <path
       style="fill:#ffff00;fill-opacity:1;stroke:#000000;stroke-width:1.12441;stroke-miterlimit:4;stroke-dasharray:none;stroke-opacity:1"
       d="m 267.71473,546.25023 c 0,-1.77342 0.30691,-2.3736 1.55546,-3.0418 0.8555,-0.45785 2.72975,-2.13855 4.165,-3.7349 2.21687,-2.46569 2.60954,-3.28241 2.60954,-5.42759 0,-3.70273 -1.97801,-6.33126 -5.51645,-7.33065 l -2.81355,-0.79466 v -6.84303 c 0,-5.31557 0.16602,-6.7435 0.74375,-6.39712 8.9442,5.36238 12.05625,8.67928 14.52527,15.48133 2.93983,8.09916 0.74919,14.47491 -5.69912,16.58696 -1.82732,0.59851 -3.8579,1.36719 -4.5124,1.70818 -0.6545,0.34099 -2.06019,0.93107 -3.12375,1.3113 l -1.93375,0.69132 z"
       id="path2867"
       transform="scale(0.26458333)" />
    <path
       style="fill:none;stroke:#000000;stroke-width:0.318425px;stroke-linecap:butt;stroke-linejoin:miter;stroke-opacity:1"
       d="m 59.430438,141.81826 c -1.395366,-0.0112 -4.186744,-0.0335 -6.977799,-0.0558 -0.13397,0.82615 -0.267985,1.65258 0.122955,2.50667 0.390941,0.8541 1.306388,1.73605 2.607029,2.15455 1.30064,0.4185 2.986406,0.37385 4.018918,-0.44662 1.032512,-0.82047 1.412087,-2.41692 1.574178,-3.23746 0.162092,-0.82055 0.106303,-0.86518 0.07819,-0.88766 -0.02811,-0.0225 -0.02811,-0.0225 -1.423475,-0.0336 z"
       id="path2869"
       inkscape:path-effect="#path-effect2871"
       inkscape:original-d="m 60.825805,141.82943 c -2.790736,-0.022 -8.373166,-0.067 -8.373166,-0.067 0,0 -0.267621,1.65264 -0.401911,2.47846 0.915802,0.88231 1.831249,1.76427 2.746397,2.64593 1.686148,-0.0443 3.371915,-0.0889 5.057391,-0.13397 0.379909,-1.5962 0.759485,-3.19265 1.138752,-4.78946 -0.05551,-0.0443 -0.111324,-0.0889 -0.167463,-0.13397 z" />
    <path
       style="fill:none;stroke:#000000;stroke-width:0.264583px;stroke-linecap:butt;stroke-linejoin:miter;stroke-opacity:1"
       d="m 61.280426,157.9599 c 0.109053,0.52002 -0.165918,1.95018 0.05566,2.39333"
       id="path2883" />
    <path
       style="fill:none;stroke:#000000;stroke-width:0.264583px;stroke-linecap:butt;stroke-linejoin:miter;stroke-opacity:1"
       d="m 66.734996,154.50904 c -0.120578,1.1235 -0.111318,2.25727 -0.111318,3.3952 0,0.13769 0.03288,1.2407 0,1.28015 -0.08399,0.10078 -0.185531,0.18553 -0.278294,0.27829 l 2.727285,1.78109"
       id="path2889" />
    <path
       style="fill:none;stroke:#000000;stroke-width:0.264583px;stroke-linecap:butt;stroke-linejoin:miter;stroke-opacity:1"
       d="m 69.072669,161.24377 c -0.0039,0.12196 -0.0068,0.2442 0.0083,0.36497 0.006,0.0482 -0.008,0.0997 0,0.14759 0.04264,0.25583 0.0011,-0.0806 0.02952,0.14758 0.0079,0.063 0,0.13308 0,0.19679 0,0.046 0.01548,0.13457 0,0.1771 -0.0029,0.008 -0.05728,0.11747 -0.06887,0.13775 -0.03282,0.0574 -0.1143,0.0892 -0.157427,0.13775 -0.0127,0.0143 -0.01707,0.0347 -0.02952,0.0492 -0.0249,0.029 -0.06612,0.0385 -0.09839,0.059 -0.02551,0.0162 -0.04031,0.0491 -0.06887,0.059 -0.09918,0.0345 -0.206697,0.0418 -0.305017,0.0787 -0.01791,0.007 -0.03056,0.0252 -0.04919,0.0295 -0.04725,0.0109 -0.220604,0.006 -0.26566,0.01 -0.03976,0.003 -0.07837,0.0157 -0.11807,0.0197 -0.121396,0.0121 -0.242414,0.01 -0.364048,0.01 -0.11807,0 -0.236527,0.01 -0.354211,0 -0.05643,-0.005 -0.11095,-0.0237 -0.167267,-0.0295 -0.06198,-0.006 -0.125256,0.009 -0.186944,0 -0.02363,-0.003 -0.04521,-0.0165 -0.06888,-0.0197 -0.02601,-0.003 -0.05257,0.002 -0.07871,0 -0.04043,-0.003 -0.07797,-0.0234 -0.11807,-0.0295 -0.01918,-0.003 -0.0673,0.002 -0.08855,0 -0.04245,-0.005 -0.130133,-0.0333 -0.157427,-0.0394 -0.06004,-0.0133 -0.16764,-0.0332 -0.226303,-0.0394 -0.111615,-0.0117 -0.222674,0.01 -0.334532,-0.01 -0.02352,-0.004 -0.04591,-0.0131 -0.06887,-0.0197 -0.04264,-0.007 -0.08515,-0.014 -0.127911,-0.0197 -0.07847,-0.0105 -0.160059,-0.014 -0.23614,-0.0394 -0.03351,-0.0112 -0.06488,-0.0282 -0.09839,-0.0394 -0.07258,-0.0242 -0.152464,-0.0281 -0.226301,-0.0492 -0.121701,-0.0348 -0.236292,-0.0752 -0.354211,-0.11807 -0.0218,-0.008 -0.04874,0.002 -0.06887,-0.01 -0.01611,-0.009 -0.02363,-0.0295 -0.03936,-0.0394 -0.03171,-0.0198 -0.07249,-0.0185 -0.10823,-0.0295 -0.08289,-0.0255 -0.155541,-0.0691 -0.236141,-0.0984 -0.01572,-0.006 -0.03424,-0.002 -0.0492,-0.01 -0.01244,-0.006 -0.01794,-0.0218 -0.02952,-0.0295 -0.0086,-0.006 -0.0205,-0.005 -0.02952,-0.01 -0.03713,-0.0212 -0.07265,-0.0452 -0.10823,-0.0689 -0.01542,-0.0103 -0.02426,-0.0286 -0.03936,-0.0394 -0.06435,-0.046 -0.141235,-0.0832 -0.206624,-0.12791 -0.07053,-0.0483 -0.07848,-0.0638 -0.147587,-0.10823 -0.06408,-0.0412 -0.133411,-0.0758 -0.196784,-0.11807 -0.0077,-0.005 -0.01312,-0.0131 -0.01968,-0.0197 -0.01969,-0.0131 -0.03827,-0.028 -0.05904,-0.0394 -0.0155,-0.008 -0.0345,-0.01 -0.0492,-0.0197 -0.06692,-0.0446 0.0623,0.007 -0.02952,-0.0393 -0.01855,-0.009 -0.04153,-0.009 -0.05903,-0.0197 -0.01955,-0.0125 -0.03044,-0.0356 -0.0492,-0.0492 -0.01781,-0.0129 -0.03936,-0.0197 -0.05904,-0.0295 -0.0164,-0.0164 -0.03049,-0.0355 -0.04919,-0.0492 -0.08261,-0.0606 -0.186256,-0.0925 -0.26566,-0.15743 -0.0127,-0.0104 -0.01969,-0.0262 -0.02952,-0.0394 -0.01969,-0.0197 -0.03653,-0.0427 -0.05903,-0.059 -0.104661,-0.0761 0.0068,0.0428 -0.09839,-0.0492 -0.09962,-0.0872 0.0488,0.01 -0.06887,-0.0787 -0.02585,-0.0194 -0.06305,-0.0195 -0.08855,-0.0394 -0.04735,-0.0368 -0.09126,-0.11162 -0.12791,-0.15743 -0.02318,-0.029 -0.05428,-0.0508 -0.07871,-0.0787 -0.04686,-0.0536 -0.09152,-0.10274 -0.147587,-0.14759 -0.03417,-0.0273 0.03344,0.0173 -0.02952,-0.0394 -0.03201,-0.0288 -0.0951,-0.0557 -0.12791,-0.0885 -0.02389,-0.0239 0.0029,-0.0144 -0.01969,-0.0295 -0.04148,-0.0276 -0.09522,-0.0279 -0.13775,-0.0492 -0.0083,-0.004 -0.01312,-0.0131 -0.01969,-0.0197 -0.01312,-0.003 -0.02726,-0.004 -0.03936,-0.01 -0.02291,-0.0115 -0.03612,-0.0377 -0.05904,-0.0492 -0.0059,-0.003 -0.01344,0.002 -0.01969,0 -0.03986,-0.0133 -0.06119,-0.0301 -0.09839,-0.0394 -0.01934,-0.005 -0.04011,-0.004 -0.05903,-0.01 -0.007,-0.002 -0.01312,-0.007 -0.01969,-0.01 -0.0066,-0.007 -0.01087,-0.0168 -0.01969,-0.0197 -0.07544,-0.0252 -0.05936,0.009 -0.127911,-0.0295 -0.01217,-0.007 -0.01759,-0.0224 -0.02952,-0.0295 -0.0062,-0.004 -0.04039,-0.01 -0.0492,-0.01 -0.0033,0 -0.01177,-0.003 -0.0098,0 0.0335,0.0455 0.07119,0.0879 0.106792,0.13181"
       id="path2895" />
    <path
       style="fill:none;stroke:#000000;stroke-width:0.264583px;stroke-linecap:butt;stroke-linejoin:miter;stroke-opacity:1"
       d="m 66.345384,159.46268 -5.009317,0.8891"
       id="path2897" />
    <path
       style="fill:none;stroke:#000000;stroke-width:0.264583px;stroke-linecap:butt;stroke-linejoin:miter;stroke-opacity:1"
       d="m 53.308744,158.35196 c -0.02061,0.19349 0.03031,0.3984 0,0.59036 -0.01069,0.0676 -0.0456,0.12963 -0.05903,0.19678 -0.03384,0.1692 -0.06438,0.33968 -0.07871,0.51164 -0.0302,0.36243 0,0.75547 0,1.12167 0,0.0722 0.02492,0.33028 0,0.37388 -0.02085,0.0365 -0.05229,0.0658 -0.07871,0.0984 -0.08508,0.1051 -0.15576,0.22389 -0.25582,0.31485 -0.0478,0.0435 -0.119322,0.0498 -0.177104,0.0787 -0.136105,0.068 -0.247203,0.16767 -0.393568,0.21646 -0.01868,0.006 -0.04143,-0.009 -0.05904,0 -0.02776,0.0139 -0.05557,0.0953 -0.05903,0.0984 -0.03953,0.0351 -0.0924,0.0515 -0.13775,0.0787 -0.186354,0.11182 -0.288497,0.19734 -0.511638,0.23614 -0.0907,0.0158 -0.184142,0.008 -0.275498,0.0197 -0.06638,0.008 -0.130164,0.0333 -0.196784,0.0394 -0.07839,0.007 -0.15839,-0.0123 -0.23614,0 -0.04934,0.008 -0.08865,0.0498 -0.137748,0.059 -0.103153,0.0193 -0.212693,-0.024 -0.314854,0 -0.06877,0.0162 -0.128854,0.0593 -0.196784,0.0787 -0.07052,0.0201 -0.145002,0.0229 -0.216463,0.0393 -0.128757,0.0297 -0.263864,0.0875 -0.393568,0.11807 -0.183933,0.0433 -0.253545,0.0463 -0.432924,0.11807 -0.03704,0.0148 -0.0814,0.004 -0.118071,0.0197 -0.06739,-0.0206 -0.06082,0.0599 -0.09839,0.0787 -0.03569,0.0178 -0.07871,0.0131 -0.118071,0.0197 -0.216767,0.0361 -0.449479,0.0709 -0.669065,0.0984 -0.05207,0.007 -0.105478,-0.007 -0.157427,0 -0.23808,0.034 -0.444815,0.0394 -0.688745,0.0394 -0.04419,0 -0.317838,0.028 -0.373888,0 -0.03531,-0.0176 -0.05554,-0.0729 -0.07871,-0.0984 -0.04992,-0.0549 -0.104952,-0.10495 -0.157427,-0.15742 -0.08933,-0.0893 -0.194898,-0.13539 -0.275498,-0.23614 -0.04875,-0.0609 -0.105719,-0.16141 -0.13775,-0.23614 -0.01066,-0.0249 -0.0076,-0.0545 -0.01969,-0.0787 -0.0083,-0.0166 -0.03349,-0.0217 -0.03936,-0.0394 -0.05964,-0.0714 0.0053,-0.1612 -0.01969,-0.23614 -0.01037,-0.0311 -0.04752,-0.048 -0.05903,-0.0787 -0.03032,-0.0808 0,-0.25083 0,-0.33453 0,-0.58652 0.169786,-0.68338 0.531315,-1.10199 0.07241,-0.0838 0.147963,-0.16756 0.236141,-0.23614 0.09113,-0.0709 0.230163,-0.0801 0.334533,-0.11807 0.08129,-0.0296 0.08642,-0.0593 0.177105,-0.0787 0.08811,-0.0189 0.206128,-0.0151 0.295177,-0.0393 0.05407,-0.0147 0.10247,-0.0481 0.157427,-0.059 0.06432,-0.0129 0.134556,0.0207 0.196784,0 0.04174,-0.0139 0.07687,-0.0436 0.11807,-0.059 0.05475,-0.0205 0.139377,-0.005 0.196784,-0.0197 0.02638,-0.007 0.03453,-0.0729 0.03936,-0.0787 0.05687,-0.0683 0.167327,-0.1034 0.21646,-0.17711 0.05417,-0.0813 -0.103272,-0.69652 -0.157427,-0.82649 -0.0474,-0.11376 -0.107373,-0.22191 -0.157427,-0.33453 -0.0533,-0.11993 -0.04759,-0.26764 -0.05903,-0.39357 -0.0084,-0.0919 -0.03275,-0.18298 -0.03936,-0.2755 -0.0037,-0.0523 0.01273,-0.10652 0,-0.15743 -0.008,-0.0318 -0.04437,-0.0494 -0.05904,-0.0787 -0.0278,-0.0556 0.01513,-0.15592 0,-0.21646 -0.03187,-0.12749 -0.02066,0.0142 -0.05903,-0.19679 -0.02447,-0.13467 0.04155,-0.0284 -0.01969,-0.19678 -0.01307,-0.0359 -0.04694,-0.0621 -0.05903,-0.0984 -0.0083,-0.0249 0.0033,-0.0527 0,-0.0787 -0.0145,-0.11597 -0.0551,-0.1325 -0.118071,-0.21647 -0.0011,-10e-4 -0.03906,-0.2144 -0.03936,-0.21646 -0.0098,-0.0689 -0.01892,-0.21417 -0.03936,-0.2755 -0.0075,-0.0224 -0.02878,-0.0379 -0.03936,-0.059 -0.01783,-0.0357 -0.01185,-0.0789 -0.01969,-0.11807 -0.01889,-0.0945 0.09446,0.19678 0,-0.11807 -0.03519,-0.1173 -0.07871,-0.0961 -0.07871,-0.25582"
       id="path2911" />
    <path
       style="fill:none;stroke:#000000;stroke-width:0.264583px;stroke-linecap:butt;stroke-linejoin:miter;stroke-opacity:1"
       d="m 48.566255,159.55235 4.604742,1.25941"
       id="path2913" />
    <path
       style="fill:#04a1ee;fill-opacity:1;stroke:#000000;stroke-width:0.795078;stroke-miterlimit:4;stroke-dasharray:none;stroke-opacity:1"
       d="m 191.91511,604.62407 -7.59464,-2.10623 -0.51536,-1.94672 c -0.28345,-1.0707 -0.76854,-3.47279 -1.07799,-5.33799 -0.30945,-1.86519 -0.77783,-3.79336 -1.04085,-4.28481 -0.78969,-1.47555 -0.60102,-1.43206 2.50564,0.57763 3.8814,2.51086 9.03063,4.89812 13.10046,6.07355 3.59119,1.0372 3.87718,1.3848 3.26625,3.97 -0.21873,0.9256 -0.40222,2.48755 -0.40774,3.47101 -0.006,0.98345 -0.15203,1.76597 -0.32558,1.73894 -0.17355,-0.027 -3.73314,-0.99696 -7.91019,-2.15538 z"
       id="path2928"
       transform="scale(0.26458333)" />
    <path
       style="fill:#04a1ee;fill-opacity:1;stroke:#000000;stroke-width:0.795078;stroke-miterlimit:4;stroke-dasharray:none;stroke-opacity:1"
       d="m 232.11621,603.73486 c 0,-0.77596 0.1243,-2.60005 0.27622,-4.05353 0.2262,-2.16415 0.4293,-2.68274 1.12159,-2.86377 0.46496,-0.12159 2.75459,-1.15466 5.08807,-2.2957 4.23707,-2.07188 8.40388,-4.79447 11.18472,-7.30808 l 1.47255,-1.33104 -0.13392,7.63301 c -0.0905,5.15902 -0.29507,7.78869 -0.63109,8.1133 -0.40002,0.38643 -16.37875,3.51664 -17.95135,3.51664 -0.23473,0 -0.42679,-0.63488 -0.42679,-1.41083 z"
       id="path2930"
       transform="scale(0.26458333)" />
    <path
       style="fill:#000000;fill-opacity:1;stroke:#000000;stroke-width:0.795078;stroke-miterlimit:4;stroke-dasharray:none;stroke-opacity:1"
       d="m 176.69092,614.43007 c -2.2499,-1.87728 -2.37227,-4.85509 -0.29404,-7.15544 1.2021,-1.33058 1.97447,-1.76212 3.89174,-2.17437 1.31559,-0.28288 2.61996,-0.68834 2.89859,-0.90103 0.32688,-0.24952 3.38654,0.3977 8.62493,1.82447 4.46509,1.21614 8.17013,2.24631 8.23343,2.28927 1.0182,0.69105 -4.87699,4.40583 -6.99186,4.40583 -0.69881,0 -3.47343,0.56799 -6.16581,1.26219 -5.69624,1.46871 -8.81058,1.60587 -10.19698,0.44908 z"
       id="path2932"
       transform="scale(0.26458333)" />
    <path
       style="fill:#000000;fill-opacity:1;stroke:#000000;stroke-width:0.795078;stroke-miterlimit:4;stroke-dasharray:none;stroke-opacity:1"
       d="m 249.99718,614.35816 c -3.86635,-0.55394 -6.47019,-1.53006 -9.4664,-3.5487 -3.25499,-2.193 -5.76173,-4.25207 -5.46947,-4.4927 0.1157,-0.0953 3.66006,-0.78097 7.87635,-1.52381 l 7.66599,-1.35061 4.87055,3.24383 4.87055,3.24383 -0.12505,1.91028 c -0.10143,1.54966 -0.3236,2.01028 -1.17686,2.44002 -1.1746,0.59157 -5.21724,0.62637 -9.04566,0.0779 z"
       id="path2934"
       transform="scale(0.26458333)" />
  </g>
</svg>
